<svg xmlns="http://www.w3.org/2000/svg" viewBox="0 0 64 64">
  <defs>
    <linearGradient id="g" x1="0" y1="0" x2="1" y2="1">
      <stop offset="0" stop-color="#1b87ff"/>
      <stop offset="1" stop-color="#0b55b8"/>
    </linearGradient>
  </defs>
  <rect x="6" y="6" width="52" height="52" rx="14" fill="url(#g)"/>
  <path d="M18 34c0-7.7 6.3-14 14-14h6c7.7 0 14 6.3 14 14s-6.3 14-14 14h-6c-7.7 0-14-6.3-14-14Z" fill="white" opacity="0.95"/>
  <path d="M24 30h16a5 5 0 0 1 5 5v0a5 5 0 0 1-5 5H24a5 5 0 0 1-5-5v0a5 5 0 0 1 5-5Z" fill="#0b55b8" opacity="0.18"/>
</svg>