<svg width="360" height="96" viewBox="0 0 360 96" fill="none" xmlns="http://www.w3.org/2000/svg">
  <defs>
    <linearGradient id="g" x1="0" y1="0" x2="1" y2="1">
      <stop offset="0" stop-color="#1b87ff"/>
      <stop offset="1" stop-color="#0b55b8"/>
    </linearGradient>
  </defs>
  <rect x="8" y="12" width="72" height="72" rx="18" fill="url(#g)"/>
  <path d="M28 54c0-10 8-18 18-18h16c10 0 18 8 18 18s-8 18-18 18H46c-10 0-18-8-18-18Z" fill="white" opacity="0.95"/>
  <path d="M44 48h20a6 6 0 0 1 6 6v0a6 6 0 0 1-6 6H44a6 6 0 0 1-6-6v0a6 6 0 0 1 6-6Z" fill="#0b55b8" opacity="0.18"/>
  <text x="96" y="54" font-family="Inter, ui-sans-serif, system-ui" font-size="34" font-weight="800" fill="#0f172a">parttime</text>
  <text x="233" y="54" font-family="Inter, ui-sans-serif, system-ui" font-size="34" font-weight="900" fill="#0b55b8">pt</text>
  <text x="96" y="76" font-family="Inter, ui-sans-serif, system-ui" font-size="14" font-weight="500" fill="#475569">vagas part-time em Lisboa &amp; Margem Sul</text>
</svg>